<?xml version="1.0" encoding="iso-8859-1"?>
<!-- Generator: Adobe Illustrator 19.0.0, SVG Export Plug-In . SVG Version: 6.00 Build 0)  -->
<svg version="1.1" id="Layer_1" xmlns="http://www.w3.org/2000/svg" xmlns:xlink="http://www.w3.org/1999/xlink" x="0px" y="0px"
	 viewBox="0 0 512 512" style="enable-background:new 0 0 512 512;" xml:space="preserve">
<path style="fill:#C1C1C1;" d="M503.916,71.411v301.811c0,11.906-9.651,21.558-21.558,21.558H29.642
	c-11.906,0-21.558-9.651-21.558-21.558V71.411c0-11.906,9.651-21.558,21.558-21.558h452.716
	C494.264,49.853,503.916,59.504,503.916,71.411z"/>
<path style="fill:#819AD1;" d="M503.916,351.663H8.084V92.968h495.832V351.663z"/>
<path style="fill:#6583B7;" d="M503.916,189.979v161.684H8.084V189.979H503.916z"/>
<path style="fill:#999999;" d="M212.884,286.989H94.316v-97.011h118.568V286.989z"/>
<path style="fill:#F9F9F9;" d="M439.242,173.811v21.558c0,5.953-4.826,10.779-10.779,10.779H299.116
	c-5.953,0-10.779-4.826-10.779-10.779v-21.558c0-5.953,4.826-10.779,10.779-10.779h129.347
	C434.416,163.032,439.242,167.857,439.242,173.811z M428.463,238.484H299.116c-5.953,0-10.779,4.826-10.779,10.779v21.558
	c0,5.953,4.826,10.779,10.779,10.779h129.347c5.953,0,10.779-4.826,10.779-10.779v-21.558
	C439.242,243.31,434.416,238.484,428.463,238.484z"/>
<path style="fill:#DBDBDB;" d="M82.507,178.898l65.348-41.156c3.511-2.211,7.977-2.211,11.488,0l65.348,41.156
	c9.147,5.761,5.066,19.9-5.744,19.9H88.252C77.441,198.798,73.36,184.66,82.507,178.898z M218.274,274.251H88.926
	c-8.929,0-16.168,7.239-16.168,16.168l0,0c0,8.929,7.239,16.168,16.168,16.168h129.347c8.929,0,16.168-7.239,16.168-16.168l0,0
	C234.442,281.49,227.203,274.251,218.274,274.251z"/>
<path d="M482.358,43.116H29.642C13.298,43.116,0,56.414,0,72.758v301.81c0,16.344,13.298,29.642,29.642,29.642h218.274v48.505
	H110.484c-4.466,0-8.084,3.618-8.084,8.084s3.618,8.084,8.084,8.084h291.032c4.466,0,8.084-3.618,8.084-8.084
	s-3.618-8.084-8.084-8.084H264.084v-48.505h218.274c16.344,0,29.642-13.298,29.642-29.642V72.758
	C512,56.414,498.702,43.116,482.358,43.116z M495.832,374.568c0,7.43-6.044,13.474-13.474,13.474H256H29.642
	c-7.43,0-13.474-6.044-13.474-13.474v-13.474h479.663V374.568z M495.832,86.232H288.337c-4.466,0-8.084,3.618-8.084,8.084
	c0,4.466,3.618,8.084,8.084,8.084h207.495v242.526H16.168V102.4h207.495c4.466,0,8.084-3.618,8.084-8.084
	c0-4.466-3.618-8.084-8.084-8.084H16.168V72.758c0-7.43,6.044-13.474,13.474-13.474h452.716c7.43,0,13.474,6.044,13.474,13.474
	V86.232z M218.274,267.514h-2.695V208.23h3.37c8.487,0,15.771-5.478,18.123-13.632c2.354-8.153-0.89-16.67-8.07-21.191
	l-65.35-41.157c-6.104-3.844-13.995-3.845-20.104,0L78.2,173.406c-7.181,4.522-10.425,13.038-8.071,21.191
	c2.353,8.154,9.635,13.632,18.123,13.632h3.369v59.284h-2.695c-13.372,0-24.253,10.88-24.253,24.253s10.88,24.253,24.253,24.253
	h129.347c13.372,0,24.253-10.88,24.253-24.253S231.646,267.514,218.274,267.514z M88.252,192.061c-1.676,0-2.333-1.058-2.589-1.948
	c-0.255-0.888-0.264-2.133,1.153-3.027l65.347-41.157c0.874-0.55,2.001-0.55,2.873,0l65.35,41.157
	c1.416,0.893,1.409,2.137,1.152,3.027c-0.257,0.888-0.914,1.948-2.589,1.948h-11.454H88.252z M199.411,208.23v59.284h-37.726V208.23
	H199.411z M145.516,208.23v59.284h-37.726V208.23H145.516z M218.274,299.851H88.926c-4.458,0-8.084-3.626-8.084-8.084
	s3.626-8.084,8.084-8.084h129.347c4.458,0,8.084,3.626,8.084,8.084S222.732,299.851,218.274,299.851z M428.463,231.747H299.116
	c-10.401,0-18.863,8.463-18.863,18.863v21.558c0,10.401,8.463,18.863,18.863,18.863h129.347c10.401,0,18.863-8.463,18.863-18.863
	v-21.558C447.326,240.21,438.864,231.747,428.463,231.747z M431.158,272.168c0,1.486-1.208,2.695-2.695,2.695H299.116
	c-1.486,0-2.695-1.208-2.695-2.695v-21.558c0-1.486,1.208-2.695,2.695-2.695h129.347c1.486,0,2.695,1.208,2.695,2.695V272.168z
	 M264.623,94.316c0,4.466-3.618,8.084-8.084,8.084h-1.078c-4.466,0-8.084-3.618-8.084-8.084c0-4.466,3.618-8.084,8.084-8.084h1.078
	C261.005,86.232,264.623,89.85,264.623,94.316z M280.253,196.716c0,10.401,8.463,18.863,18.863,18.863h129.347
	c10.401,0,18.863-8.463,18.863-18.863v-21.558c0-10.401-8.463-18.863-18.863-18.863H299.116c-10.401,0-18.863,8.463-18.863,18.863
	V196.716z M296.421,175.158c0-1.486,1.208-2.695,2.695-2.695h129.347c1.486,0,2.695,1.208,2.695,2.695v21.558
	c0,1.486-1.208,2.695-2.695,2.695H299.116c-1.486,0-2.695-1.208-2.695-2.695V175.158z"/>
<g>
</g>
<g>
</g>
<g>
</g>
<g>
</g>
<g>
</g>
<g>
</g>
<g>
</g>
<g>
</g>
<g>
</g>
<g>
</g>
<g>
</g>
<g>
</g>
<g>
</g>
<g>
</g>
<g>
</g>
</svg>
